<svg
	xmlns="http://www.w3.org/2000/svg"
	xmlns:xlink="http://www.w3.org/1999/xlink" 
	version="1.1" 
	width="$1280*2"
	height="$800*2">	
	<!-- 6144x4608 -->
	<!--WARNING - NOT CHECKED FOR SAME NODE SIZES-->
	<!--wiki-pict address (html 2 gedit)-->
	<!--may be shift (circle in centre)-->
	<defs>
		<pattern id="Pattern_vert_$colors" onenode="" patternUnits="userSpaceOnUse" 
			x="0" y="0" width="15" height="10" >
			<line y2="10" stroke="$colors"/>   	
		</pattern>
		<pattern id="Pattern_gor_$colors" onenode="" patternUnits="userSpaceOnUse" 
			x="0" y="0" width="10" height="15" >
			<line x2="10" stroke="$colors"/>   	
		</pattern>
		<!--todo distance pattern-->
   </defs>
   <!--background--> 
	<rect width="$1280*2" height="$800*2" fill="grey"/>	  
 	<g id="all" transform="translate(50, 600)">
	 	<!--rulers-->		
		<g id="x" transform="translate($0;90;;25$, 0)" onenode="">
			<line y1="540" y2="-540" stroke="rgb(159, 159, 159)"/>
			<text x ="2" y="12">$0;1;25$h</text>		
		</g>
		<g id="-y" transform="translate(0, $0;90;;7$)" onenode="">
			<line x1="0" x2="2160" stroke="rgb(159, 159, 159)"/>
			<text>$0;-15;;7</text>		
		</g>
		<g id="y" transform="translate(0, $0;-90;;7$)" onenode="">
			<line x1="0" x2="2160" stroke="rgb(159, 159, 159)"/>
			<text>$0;15;;7</text>		
		</g>
		<!--objects-copy-coords-from-1-to-2-->		
		<g id="objs_img" 
			transform="translate($[a_num] * 2160$, $-1*[b_num]*6$)" onenode="">
			<!--image-->	
			<a xlink:href="$big_image" onenode="">
				<image xlink:href="pict/75px-$image_"
				width="75" height="75"/>								
			</a>
		</g>
		<g id="objs" 
			transform="translate($[a_num] * 2160$, $-1*[b_num]*6$)" onenode="">
			<!--circle (apparent magnitude)--> 			
			<circle r="$size" fill="none" stroke="$color" stroke-dasharray="4.28,2"/>
			<!--cube lines (angular size and distance)-->
			<rect	width="$[x]*90" height="$[y]*90"
				fill="none" stroke="$color"/>
			<line1 id="diag" x1 = "$[x]*90"
				x2="$[x]*90 + (log([distance])+1) * 4" y2="$0 + (log([distance])+1) * 4"				
				stroke="$color"/>
			<line1 id="diag" y1="$[y]*90"
				x2="$0 + (log([distance])+1) * 4" y2="$[y]*90 + (log([distance])+1) * 4"				
				stroke="$color"/>
			<line id="diag" x1 = "$[x]*90" y1="$[y]*90"
				x2="$[x]*90 + (log([distance])+1) * 4" y2="$[y]*90 + (log([distance])+1) * 4"				
				stroke="$color"/>
			<line1 id="gor" x1 = "$0 + (log([distance])+1) * 4" y1="$[y]*90 + (log([distance])+1) * 4"
				x2="$[x]*90 + (log([distance])+1) * 4" y2="$[y]*90 + (log([distance])+1) * 4"				
				stroke="$color"/>			
			<line1 id="vert" x1 = "$[x]*90 + (log([distance])+1) * 4" y1="$(log([distance])+1) * 4"
				x2="$[x]*90 + (log([distance])+1) * 4" y2="$[y]*90 + (log([distance])+1) * 4"				
				stroke="$color"/>
			<!--signs for cube-->	
			<g transform="translate($[x]*90$, $[y]*90$)" onenode="">
  				<rect transform="skewX(45)" fill="url(#Pattern_gor_$color$)" 
  					width="10" height="$0 + (log([distance])+1) * 4"/>
  			</g>  				
  			<rect fill="url(#Pattern_vert_$color$)" 
  				y="-10" width="$[x]*90" height="10"/>
  			<rect fill="url(#Pattern_gor_$color$)" 
  				x="-10" y1="0" width="10" height="$[y]*90"/>
  			<!--text-->	
			<a xlink:href="http://messier.seds.org/m/m$num$.html" onenode="">
				<text y="-2" font-size="4" fill="white">$name</text>				
			</a> 
		</g>
	</g>

	<!--legend-->
	<g id="legend" transform="translate(200, 1350)">
		<!--circle (apparent magnitude)--> 
		<circle r="40" fill="none" stroke="orange" stroke-dasharray="4.28,2"/>
		<text y="-40">
		<tspan x="-120" dy="15">Apparent magnitude</tspan>
		<tspan x="-140" dy="15" font-size="10">(radius and amount of dashes)</tspan>
		</text>
		<!--cube lines (angular size and distance)-->
		<line x1 = "-5"
			x2="-15" y2="-20"				
			stroke="orange"/>
		<line x1="-15" y1="-20"	
			x2="-5" y2="-40"				
			stroke="orange"/>
		<rect	width="80" height="80"
			fill="none" stroke="orange"/>
		<line id="diag" x1 = "80"
			x2="160" y2="80"				
			stroke="orange"/>
		<line id="diag" x1="80" y1="80"
			x2="160" y2="160"				
			stroke="orange"/>
		<line id="diag" y1="80"
			x2="80" y2="160"				
			stroke="orange"/>
		<line id="gor" x1 = "160" y1="80"
			x2="160" y2="160"				
			stroke="orange"/>			
		<line id="vert" x1 = "160" y1="160"
			x2="80" y2="160"				
			stroke="orange"/>
		<!--signs for cube-->			
		<g transform="translate(80, 0)" onenode="">
  			<rect transform="skewX(45)" fill="url(#Pattern_gor_darkorange)" 
  				width="10" height="80"/>
  		</g>  				  		
  		<rect fill="url(#Pattern_vert_darkorange)" 
  			y="-10" width="80" height="10"/>
  		<rect fill="url(#Pattern_gor_darkorange)" 
  			x="-10" y1="0" width="10" height="80"/>  
  		<text y="-20">Angular size horizontal * 15 (1 sign = 10 min)</text>
  		<text y="25" transform="rotate(90)">Angular size vertical * 15 (1 sign = 10 min)</text>
  		<text x="80" y="-75" transform="rotate(45)">Distance (kly)</text>
  		<text transform="rotate(45)">Distance (kly)</text>
	</g>	
</svg>
