<?xml version="1.0" ?><svg xmlns="http://www.w3.org/2000/svg" xmlns:xlink="http://www.w3.org/1999/xlink" version="1.1" width="800" height="600">
	<rect x="0" y="0" width="800" height="600" fill="darkslategray"></rect>
	<line x1="0" x2="1280" y1="10" y2="10" width="1280" height="2" fill="none" stroke-dasharray="10,2" stroke="black"></line>
	<line x1="0" x2="1280" y1="20" y2="20" width="1280" height="2" fill="none" stroke-dasharray="10,2" stroke="black"></line>
	<line x1="0" x2="1280" y1="30" y2="30" width="1280" height="2" fill="none" stroke-dasharray="10,2" stroke="black"></line>
	<line x1="0" x2="1280" y1="40" y2="40" width="1280" height="2" fill="none" stroke-dasharray="10,2" stroke="black"></line>
	<line x1="0" x2="1280" y1="60" y2="60" width="1280" height="2" fill="none" stroke-dasharray="10,2" stroke="black"></line>
	<line x1="0" x2="1280" y1="70" y2="70" width="1280" height="2" fill="none" stroke-dasharray="10,2" stroke="black"></line>
	<line x1="0" x2="1280" y1="80" y2="80" width="1280" height="2" fill="none" stroke-dasharray="10,2" stroke="black"></line>
	<line x1="0" x2="1280" y1="90" y2="90" width="1280" height="2" fill="none" stroke-dasharray="10,2" stroke="black"></line>
	<line x1="0" x2="1280" y1="110" y2="110" width="1280" height="2" fill="none" stroke-dasharray="10,2" stroke="black"></line>
	<line x1="0" x2="1280" y1="120" y2="120" width="1280" height="2" fill="none" stroke-dasharray="10,2" stroke="black"></line>
	<line x1="0" x2="1280" y1="130" y2="130" width="1280" height="2" fill="none" stroke-dasharray="10,2" stroke="black"></line>
	<line x1="0" x2="1280" y1="140" y2="140" width="1280" height="2" fill="none" stroke-dasharray="10,2" stroke="black"></line>
	<line x1="0" x2="1280" y1="160" y2="160" width="1280" height="2" fill="none" stroke-dasharray="10,2" stroke="black"></line>
	<line x1="0" x2="1280" y1="170" y2="170" width="1280" height="2" fill="none" stroke-dasharray="10,2" stroke="black"></line>
	<line x1="0" x2="1280" y1="180" y2="180" width="1280" height="2" fill="none" stroke-dasharray="10,2" stroke="black"></line>
	<line x1="0" x2="1280" y1="190" y2="190" width="1280" height="2" fill="none" stroke-dasharray="10,2" stroke="black"></line>
	<line x1="0" x2="1280" y1="210" y2="210" width="1280" height="2" fill="none" stroke-dasharray="10,2" stroke="black"></line>
	<line x1="0" x2="1280" y1="220" y2="220" width="1280" height="2" fill="none" stroke-dasharray="10,2" stroke="black"></line>
	<line x1="0" x2="1280" y1="230" y2="230" width="1280" height="2" fill="none" stroke-dasharray="10,2" stroke="black"></line>
	<line x1="0" x2="1280" y1="240" y2="240" width="1280" height="2" fill="none" stroke-dasharray="10,2" stroke="black"></line>
	<line x1="0" x2="1280" y1="260" y2="260" width="1280" height="2" fill="none" stroke-dasharray="10,2" stroke="black"></line>
	<line x1="0" x2="1280" y1="270" y2="270" width="1280" height="2" fill="none" stroke-dasharray="10,2" stroke="black"></line>
	<line x1="0" x2="1280" y1="280" y2="280" width="1280" height="2" fill="none" stroke-dasharray="10,2" stroke="black"></line>
	<line x1="0" x2="1280" y1="290" y2="290" width="1280" height="2" fill="none" stroke-dasharray="10,2" stroke="black"></line>
	<line x1="0" x2="1280" y1="50" y2="50" width="1280" height="2" fill="none" stroke-dasharray="22,2" stroke="darkkhaki"></line>
	<line x1="0" x2="1280" y1="100" y2="100" width="1280" height="2" fill="none" stroke-dasharray="22,2" stroke="darkkhaki"></line>
	<line x1="0" x2="1280" y1="150" y2="150" width="1280" height="2" fill="none" stroke-dasharray="22,2" stroke="darkkhaki"></line>
	<line x1="0" x2="1280" y1="200" y2="200" width="1280" height="2" fill="none" stroke-dasharray="22,2" stroke="darkkhaki"></line>
	<line x1="0" x2="1280" y1="250" y2="250" width="1280" height="2" fill="none" stroke-dasharray="22,2" stroke="darkkhaki"></line>
	<text x="10" y="48" font-size="10" fill="lightslateblue">
5/s	</text>
	<text x="10" y="98" font-size="10" fill="lightslateblue">
42/s	</text>
	<text x="10" y="148" font-size="10" fill="lightslateblue">
3/s	</text>
	<text x="10" y="189" font-size="10" fill="lightslateblue">
2/s	</text>
	<text x="10" y="248" font-size="10" fill="lightslateblue">
1/s	</text>
	<rect x="0" y="300" width="1280" height="5"></rect>
	<rect x="275" y="34" width="32" height="32" rx="5" ry="5" fill="none" stroke="chocolate"></rect>
	<text x="291" y="48" fill="chocolate">
1x1	</text>
	<rect x="32.0" y="250.0" width="64.0" height="64.0" rx="5" ry="5" fill="none" stroke="chocolate"></rect>
	<rect x="64.0" y="200.0" width="64.0" height="64.0" rx="5" ry="5" fill="none" stroke="chocolate"></rect>
	<rect x="96.0" y="200.0" width="96.0" height="96.0" rx="5" ry="5" fill="none" stroke="chocolate"></rect>
	<rect x="128.0" y="275.0" width="64.0" height="64.0" rx="5" ry="5" fill="none" stroke="chocolate"></rect>
	<rect x="160.0" y="262.5" width="64.0" height="64.0" rx="5" ry="5" fill="none" stroke="chocolate"></rect>
	<rect x="192.0" y="237.5" width="64.0" height="64.0" rx="5" ry="5" fill="none" stroke="chocolate"></rect>
	<rect x="224.0" y="282.5" width="64.0" height="64.0" rx="5" ry="5" fill="none" stroke="chocolate"></rect>
	<rect x="256.0" y="275.0" width="160.0" height="160.0" rx="5" ry="5" fill="none" stroke="chocolate"></rect>
	<rect x="288.0" y="240.0" width="32.0" height="32.0" rx="5" ry="5" fill="none" stroke="chocolate"></rect>
	<rect x="320.0" y="216.0" width="32.0" height="32.0" rx="5" ry="5" fill="none" stroke="chocolate"></rect>
	<rect x="352.0" y="180.0" width="32.0" height="32.0" rx="5" ry="5" fill="none" stroke="chocolate"></rect>
	<rect x="384.0" y="90.0" width="32.0" height="32.0" rx="5" ry="5" fill="none" stroke="chocolate"></rect>
	<rect x="416.0" y="90.0" width="32.0" height="32.0" rx="5" ry="5" fill="none" stroke="chocolate"></rect>
	<rect x="448.0" y="210.0" width="32.0" height="32.0" rx="5" ry="5" fill="none" stroke="chocolate"></rect>
	<rect x="480.0" y="120.0" width="32.0" height="32.0" rx="5" ry="5" fill="none" stroke="chocolate"></rect>
	<rect x="512.0" y="20.0" width="32.0" height="32.0" rx="5" ry="5" fill="none" stroke="chocolate"></rect>
	<rect x="544.0" y="210.0" width="32.0" height="32.0" rx="5" ry="5" fill="none" stroke="chocolate"></rect>
	<rect x="576.0" y="120.0" width="32.0" height="32.0" rx="5" ry="5" fill="none" stroke="chocolate"></rect>
	<rect x="608.0" y="20.0" width="32.0" height="32.0" rx="5" ry="5" fill="none" stroke="chocolate"></rect>
	<rect x="640.0" y="210.0" width="64.0" height="32.0" rx="5" ry="5" fill="none" stroke="chocolate"></rect>
	<circle cx="34.0" cy="252.0" r="45.0" fill="none" stroke="indianred"></circle>
	<circle cx="66.0" cy="202.0" r="45.0" fill="none" stroke="indianred"></circle>
	<circle cx="98.0" cy="202.0" r="45.0" fill="none" stroke="indianred"></circle>
	<circle cx="130.0" cy="277.0" r="22.5" fill="none" stroke="forestgreen"></circle>
	<circle cx="162.0" cy="264.5" r="37.5" fill="none" stroke="forestgreen"></circle>
	<circle cx="194.0" cy="239.5" r="52.5" fill="none" stroke="forestgreen"></circle>
	<circle cx="226.0" cy="284.5" r="75.0" fill="none" stroke="indianred"></circle>
	<circle cx="258.0" cy="277.0" r="22.5" fill="none" stroke="indianred"></circle>
	<circle cx="290.0" cy="242.0" r="45.0" fill="none" stroke="indianred"></circle>
	<circle cx="322.0" cy="218.0" r="3.25" fill="none" stroke="indianred"></circle>
	<circle cx="354.0" cy="182.0" r="4.5" fill="none" stroke="indianred"></circle>
	<circle cx="386.0" cy="92.0" r="7.5" fill="none" stroke="indianred"></circle>
	<circle cx="418.0" cy="92.0" r="10.0" fill="none" stroke="indianred"></circle>
	<circle cx="450.0" cy="212.0" r="0.0" fill="none" stroke="forestgreen"></circle>
	<circle cx="482.0" cy="122.0" r="0.0" fill="none" stroke="forestgreen"></circle>
	<circle cx="514.0" cy="22.0" r="0.0" fill="none" stroke="forestgreen"></circle>
	<circle cx="546.0" cy="212.0" r="0.0" fill="none" stroke="forestgreen"></circle>
	<circle cx="578.0" cy="122.0" r="0.0" fill="none" stroke="forestgreen"></circle>
	<circle cx="610.0" cy="22.0" r="0.0" fill="none" stroke="forestgreen"></circle>
	<circle cx="642.0" cy="212.0" r="0.0" fill="none" stroke="forestgreen"></circle>
	<circle cx="50" cy="50" r="25" fill="none" stroke="indianred"></circle>
	<text x="50" y="48" fill="indianred">
100 kW	</text>
	<circle cx="150" cy="50" r="25" fill="none" stroke="forestgreen"></circle>
	<text x="150" y="48" fill="forestgreen">
100 W	</text>
	<circle cx="34.0" cy="252.0" r="45.0" fill="none" stroke="indianred"></circle>
	<circle cx="66.0" cy="202.0" r="45.0" fill="none" stroke="indianred"></circle>
	<circle cx="98.0" cy="202.0" r="45.0" fill="none" stroke="indianred"></circle>
	<circle cx="130.0" cy="277.0" r="22.5" fill="none" stroke="forestgreen"></circle>
	<circle cx="162.0" cy="264.5" r="37.5" fill="none" stroke="forestgreen"></circle>
	<circle cx="194.0" cy="239.5" r="52.5" fill="none" stroke="forestgreen"></circle>
	<circle cx="226.0" cy="284.5" r="75.0" fill="none" stroke="indianred"></circle>
	<circle cx="258.0" cy="277.0" r="22.5" fill="none" stroke="indianred"></circle>
	<circle cx="290.0" cy="242.0" r="45.0" fill="none" stroke="indianred"></circle>
	<circle cx="322.0" cy="218.0" r="3.25" fill="none" stroke="indianred"></circle>
	<circle cx="354.0" cy="182.0" r="4.5" fill="none" stroke="indianred"></circle>
	<circle cx="386.0" cy="92.0" r="7.5" fill="none" stroke="indianred"></circle>
	<circle cx="418.0" cy="92.0" r="10.0" fill="none" stroke="indianred"></circle>
	<circle cx="450.0" cy="212.0" r="0.0" fill="none" stroke="forestgreen"></circle>
	<circle cx="482.0" cy="122.0" r="0.0" fill="none" stroke="forestgreen"></circle>
	<circle cx="514.0" cy="22.0" r="0.0" fill="none" stroke="forestgreen"></circle>
	<circle cx="546.0" cy="212.0" r="0.0" fill="none" stroke="forestgreen"></circle>
	<circle cx="578.0" cy="122.0" r="0.0" fill="none" stroke="forestgreen"></circle>
	<circle cx="610.0" cy="22.0" r="0.0" fill="none" stroke="forestgreen"></circle>
	<circle cx="642.0" cy="212.0" r="0.0" fill="none" stroke="forestgreen"></circle>
	<line x1="34.0" y1="252.0" x2="34.0" y2="207.0" fill="none" stroke="indianred"></line>
	<line x1="66.0" y1="202.0" x2="66.0" y2="157.0" fill="none" stroke="indianred"></line>
	<line x1="98.0" y1="202.0" x2="98.0" y2="157.0" fill="none" stroke="indianred"></line>
	<line x1="130.0" y1="277.0" x2="130.0" y2="254.5" fill="none" stroke="forestgreen"></line>
	<line x1="162.0" y1="264.5" x2="162.0" y2="227.0" fill="none" stroke="forestgreen"></line>
	<line x1="194.0" y1="239.5" x2="194.0" y2="187.0" fill="none" stroke="forestgreen"></line>
	<line x1="226.0" y1="284.5" x2="226.0" y2="209.5" fill="none" stroke="indianred"></line>
	<line x1="258.0" y1="277.0" x2="258.0" y2="254.5" fill="none" stroke="indianred"></line>
	<line x1="290.0" y1="242.0" x2="290.0" y2="197.0" fill="none" stroke="indianred"></line>
	<line x1="322.0" y1="218.0" x2="322.0" y2="214.75" fill="none" stroke="indianred"></line>
	<line x1="354.0" y1="182.0" x2="354.0" y2="177.5" fill="none" stroke="indianred"></line>
	<line x1="386.0" y1="92.0" x2="386.0" y2="84.5" fill="none" stroke="indianred"></line>
	<line x1="418.0" y1="92.0" x2="418.0" y2="82.0" fill="none" stroke="indianred"></line>
	<line x1="450.0" y1="212.0" x2="450.0" y2="212.0" fill="none" stroke="forestgreen"></line>
	<line x1="482.0" y1="122.0" x2="482.0" y2="122.0" fill="none" stroke="forestgreen"></line>
	<line x1="514.0" y1="22.0" x2="514.0" y2="22.0" fill="none" stroke="forestgreen"></line>
	<line x1="546.0" y1="212.0" x2="546.0" y2="212.0" fill="none" stroke="forestgreen"></line>
	<line x1="578.0" y1="122.0" x2="578.0" y2="122.0" fill="none" stroke="forestgreen"></line>
	<line x1="610.0" y1="22.0" x2="610.0" y2="22.0" fill="none" stroke="forestgreen"></line>
	<line x1="642.0" y1="212.0" x2="642.0" y2="212.0" fill="none" stroke="forestgreen"></line>
	<rect x="32.0" y="250.0" width="4" height="4" fill="black"></rect>
	<rect x="64.0" y="200.0" width="4" height="4" fill="black"></rect>
	<rect x="96.0" y="200.0" width="4" height="4" fill="black"></rect>
	<rect x="128.0" y="275.0" width="4" height="4" fill="black"></rect>
	<rect x="160.0" y="262.5" width="4" height="4" fill="black"></rect>
	<rect x="192.0" y="237.5" width="4" height="4" fill="black"></rect>
	<rect x="224.0" y="282.5" width="4" height="4" fill="black"></rect>
	<rect x="256.0" y="275.0" width="4" height="4" fill="black"></rect>
	<rect x="288.0" y="240.0" width="4" height="4" fill="black"></rect>
	<rect x="320.0" y="216.0" width="4" height="4" fill="black"></rect>
	<rect x="352.0" y="180.0" width="4" height="4" fill="black"></rect>
	<rect x="384.0" y="90.0" width="4" height="4" fill="black"></rect>
	<rect x="416.0" y="90.0" width="4" height="4" fill="black"></rect>
	<rect x="448.0" y="210.0" width="4" height="4" fill="black"></rect>
	<rect x="480.0" y="120.0" width="4" height="4" fill="black"></rect>
	<rect x="512.0" y="20.0" width="4" height="4" fill="black"></rect>
	<rect x="544.0" y="210.0" width="4" height="4" fill="black"></rect>
	<rect x="576.0" y="120.0" width="4" height="4" fill="black"></rect>
	<rect x="608.0" y="20.0" width="4" height="4" fill="black"></rect>
	<rect x="640.0" y="210.0" width="4" height="4" fill="black"></rect>
	<image x="32.0" y="250.0" width="32" height="32" xlink:href="Stone-furnace.png"></image>
	<image x="64.0" y="200.0" width="32" height="32" xlink:href="Steel-furnace.png"></image>
	<image x="96.0" y="200.0" width="32" height="32" xlink:href="Electric-furnace.png"></image>
	<image x="128.0" y="275.0" width="32" height="32" xlink:href="Assembling-machine-1.png"></image>
	<image x="160.0" y="262.5" width="32" height="32" xlink:href="Assembling-machine-2.png"></image>
	<image x="192.0" y="237.5" width="32" height="32" xlink:href="Assembling-machine-3.png"></image>
	<image x="224.0" y="282.5" width="32" height="32" xlink:href="Burner-mining-drill.png"></image>
	<image x="256.0" y="275.0" width="32" height="32" xlink:href="Electric-mining-drill.png"></image>
	<image x="288.0" y="240.0" width="32" height="32" xlink:href="Burner-inserter.png"></image>
	<image x="320.0" y="216.0" width="32" height="32" xlink:href="Basic-inserter.png"></image>
	<image x="352.0" y="180.0" width="32" height="32" xlink:href="Long-handed-inserter.png"></image>
	<image x="384.0" y="90.0" width="32" height="32" xlink:href="Fast-inserter.png"></image>
	<image x="416.0" y="90.0" width="32" height="32" xlink:href="Smart-inserter.png"></image>
	<image x="448.0" y="210.0" width="32" height="32" xlink:href="Basic-transport-belt.png"></image>
	<image x="480.0" y="120.0" width="32" height="32" xlink:href="Fast-transport-belt.png"></image>
	<image x="512.0" y="20.0" width="32" height="32" xlink:href="Express-transport-belt.png"></image>
	<image x="544.0" y="210.0" width="32" height="32" xlink:href="Basic-transport-belt-to-ground.png"></image>
	<image x="576.0" y="120.0" width="32" height="32" xlink:href="Fast-transport-belt-to-ground.png"></image>
	<image x="608.0" y="20.0" width="32" height="32" xlink:href="Express-transport-belt-to-ground.png"></image>
	<image x="640.0" y="210.0" width="32" height="32" xlink:href="Basic-splitter.png"></image>
	</svg>
